<?xml version="1.0" encoding="UTF-8"?>
<!DOCTYPE svg PUBLIC "-//W3C//DTD SVG 1.1//EN" "http://www.w3.org/Graphics/SVG/1.1/DTD/svg11.dtd">
<!-- Creator: CorelDRAW -->
<svg xmlns="http://www.w3.org/2000/svg" xml:space="preserve" width="100px" height="96px" version="1.1" style="shape-rendering:geometricPrecision; text-rendering:geometricPrecision; image-rendering:optimizeQuality; fill-rule:evenodd; clip-rule:evenodd"
viewBox="0 0 92.81 89.17"
 xmlns:xlink="http://www.w3.org/1999/xlink"
 xmlns:xodm="http://www.corel.com/coreldraw/odm/2003">
 <defs>
  <style type="text/css">
   <![CDATA[
    .str1 {stroke:#FEFEFE;stroke-width:0.61;stroke-miterlimit:22.9256}
    .str0 {stroke:#373435;stroke-width:0.15;stroke-miterlimit:22.9256}
    .fil18 {fill:none}
    .fil2 {fill:#FFF5FA}
    .fil19 {fill:#373435;fill-rule:nonzero}
    .fil17 {fill:#FFF9FA;fill-opacity:0.741176}
    .fil0 {fill:url(#id1)}
    .fil1 {fill:url(#id2)}
    .fil10 {fill:url(#id3);fill-opacity:0.501961}
    .fil15 {fill:url(#id4);fill-opacity:0.501961}
    .fil8 {fill:url(#id5);fill-opacity:0.501961}
    .fil5 {fill:url(#id6);fill-opacity:0.501961}
    .fil11 {fill:url(#id7);fill-opacity:0.501961}
    .fil3 {fill:url(#id8);fill-opacity:0.501961}
    .fil13 {fill:url(#id9);fill-opacity:0.501961}
    .fil4 {fill:url(#id10);fill-opacity:0.501961}
    .fil6 {fill:url(#id11);fill-opacity:0.501961}
    .fil12 {fill:url(#id12);fill-opacity:0.501961}
    .fil16 {fill:url(#id13);fill-opacity:0.501961}
    .fil14 {fill:url(#id14);fill-opacity:0.501961}
    .fil9 {fill:url(#id15);fill-opacity:0.501961}
    .fil7 {fill:url(#id16);fill-opacity:0.501961}
   ]]>
  </style>
    <clipPath id="id0">
     <path d="M48.23 0.31l-3.64 0c-24.36,0 -44.28,19.92 -44.28,44.28l0 0c0,24.35 19.92,44.28 44.28,44.28l3.64 0c24.35,0 44.28,-19.93 44.28,-44.28l0 0c0,-24.36 -19.93,-44.28 -44.28,-44.28z"/>
    </clipPath>
  <linearGradient id="id1" gradientUnits="userSpaceOnUse" x1="36.19" y1="0.32" x2="37.43" y2="95.22">
   <stop offset="0" style="stop-opacity:1; stop-color:#A9A5BE"/>
   <stop offset="0.639216" style="stop-opacity:1; stop-color:#FFC7EF"/>
   <stop offset="1" style="stop-opacity:1; stop-color:#FCD9D3"/>
  </linearGradient>
  <linearGradient id="id2" gradientUnits="userSpaceOnUse" xlink:href="#id1" x1="35.5" y1="-2.36" x2="36.24" y2="99">
  </linearGradient>
  <linearGradient id="id3" gradientUnits="userSpaceOnUse" x1="92.25" y1="38.09" x2="59.44" y2="58.35">
   <stop offset="0" style="stop-opacity:1; stop-color:#FFC7EF"/>
   <stop offset="1" style="stop-opacity:1; stop-color:#FEFEFE"/>
  </linearGradient>
  <linearGradient id="id4" gradientUnits="userSpaceOnUse" xlink:href="#id3" x1="99.31" y1="65.27" x2="56.35" y2="91.79">
  </linearGradient>
  <linearGradient id="id5" gradientUnits="userSpaceOnUse" xlink:href="#id3" x1="95.4" y1="53.88" x2="40.11" y2="88.01">
  </linearGradient>
  <linearGradient id="id6" gradientUnits="userSpaceOnUse" xlink:href="#id3" x1="71.57" y1="19.37" x2="38.76" y2="39.62">
  </linearGradient>
  <linearGradient id="id7" gradientUnits="userSpaceOnUse" xlink:href="#id3" x1="40.73" y1="43.86" x2="-14.56" y2="77.99">
  </linearGradient>
  <linearGradient id="id8" gradientUnits="userSpaceOnUse" xlink:href="#id3" x1="63.06" y1="50.82" x2="7.77" y2="84.95">
  </linearGradient>
  <linearGradient id="id9" gradientUnits="userSpaceOnUse" xlink:href="#id3" x1="47.88" y1="-0.03" x2="15.06" y2="20.22">
  </linearGradient>
  <linearGradient id="id10" gradientUnits="userSpaceOnUse" xlink:href="#id3" x1="74.72" y1="35.16" x2="19.43" y2="69.29">
  </linearGradient>
  <linearGradient id="id11" gradientUnits="userSpaceOnUse" xlink:href="#id3" x1="71.57" y1="19.37" x2="38.76" y2="39.62">
  </linearGradient>
  <linearGradient id="id12" gradientUnits="userSpaceOnUse" xlink:href="#id3" x1="52.39" y1="28.2" x2="-2.91" y2="62.32">
  </linearGradient>
  <linearGradient id="id13" gradientUnits="userSpaceOnUse" xlink:href="#id3" x1="97.14" y1="60.06" x2="81.08" y2="69.1">
  </linearGradient>
  <linearGradient id="id14" gradientUnits="userSpaceOnUse" xlink:href="#id3" x1="49.24" y1="12.41" x2="16.42" y2="32.66">
  </linearGradient>
  <linearGradient id="id15" gradientUnits="userSpaceOnUse" xlink:href="#id3" x1="92.25" y1="38.09" x2="59.44" y2="58.35">
  </linearGradient>
  <linearGradient id="id16" gradientUnits="userSpaceOnUse" xlink:href="#id3" x1="88.42" y1="49.24" x2="33.13" y2="83.36">
  </linearGradient>
 </defs>
 <g id="Capa_x0020_1">
  <metadata id="CorelCorpID_0Corel-Layer"/>
  <g id="_2535762580368">
   <path class="fil0" d="M48.23 0.31l-3.64 0c-24.36,0 -44.28,19.92 -44.28,44.28l0 0c0,24.35 19.92,44.28 44.28,44.28l3.64 0c24.35,0 44.28,-19.93 44.28,-44.28l0 0c0,-24.36 -19.93,-44.28 -44.28,-44.28z"/>
   <g style="clip-path:url(#id0)">
    <g>
     <rect class="fil1 str0" x="-1.37" y="-2.37" width="94.07" height="94.59"/>
     <g>
      <rect class="fil2" x="41.51" y="7.36" width="2.41" height="5.18" rx="1.22" ry="2.62"/>
      <rect class="fil2" x="38.35" y="36.46" width="2.41" height="5.18" rx="1.22" ry="2.62"/>
      <rect class="fil2" x="26.44" y="25.48" width="2.41" height="5.18" rx="1.22" ry="2.62"/>
      <rect class="fil2" x="21.56" y="43.07" width="1.57" height="3.38" rx="0.8" ry="1.71"/>
      <rect class="fil2" x="30.37" y="18.73" width="1.79" height="3.84" rx="0.91" ry="1.95"/>
      <rect class="fil2" x="32.19" y="32.31" width="1.79" height="3.84" rx="0.91" ry="1.95"/>
      <rect class="fil2" x="23.35" y="24.16" width="1.79" height="3.84" rx="0.91" ry="1.95"/>
      <rect class="fil2" x="25.16" y="37.74" width="1.79" height="3.84" rx="0.91" ry="1.95"/>
      <rect class="fil2" x="17.31" y="34.41" width="2.41" height="5.18" rx="1.22" ry="2.62"/>
      <rect class="fil2" x="15.61" y="48.89" width="1.57" height="3.38" rx="0.8" ry="1.71"/>
      <rect class="fil2" x="28.06" y="10.76" width="1.57" height="3.38" rx="0.8" ry="1.71"/>
      <rect class="fil2" x="9.02" y="37.31" width="1.79" height="3.84" rx="0.91" ry="1.95"/>
      <rect class="fil2" x="11.59" y="46.18" width="1.16" height="2.5" rx="0.59" ry="1.27"/>
      <rect class="fil2" x="4.75" y="40.41" width="1.79" height="3.84" rx="0.91" ry="1.95"/>
      <rect class="fil2" x="6.57" y="53.99" width="1.79" height="3.84" rx="0.91" ry="1.95"/>
      <rect class="fil2" x="19.85" y="7.69" width="2.41" height="5.18" rx="1.22" ry="2.62"/>
      <rect class="fil2" x="17" y="5.05" width="1.79" height="3.84" rx="0.91" ry="1.95"/>
      <rect class="fil2" x="16.07" y="17.36" width="1.79" height="3.84" rx="0.91" ry="1.95"/>
      <rect class="fil2" x="10.59" y="21.59" width="2.41" height="5.18" rx="1.22" ry="2.62"/>
      <rect class="fil2" x="4.91" y="20.42" width="1.79" height="3.84" rx="0.91" ry="1.95"/>
      <rect class="fil2" x="40.82" y="48.6" width="1.57" height="3.38" rx="0.8" ry="1.71"/>
      <rect class="fil2" x="42.84" y="23.97" width="1.57" height="3.38" rx="0.8" ry="1.71"/>
      <rect class="fil2" x="27.1" y="47.26" width="1.57" height="3.38" rx="0.8" ry="1.71"/>
      <rect class="fil2" x="2.9" y="34.57" width="1.16" height="2.5" rx="0.59" ry="1.27"/>
      <rect class="fil2" x="31.66" y="6.59" width="2.41" height="5.18" rx="1.22" ry="2.62"/>
      <rect class="fil2" x="9.45" y="9.24" width="2.41" height="5.18" rx="1.22" ry="2.62"/>
      <rect class="fil2" x="36.86" y="18.43" width="2.41" height="5.18" rx="1.22" ry="2.62"/>
     </g>
     <g>
      <rect class="fil2" x="85.46" y="8.05" width="2.41" height="5.18" rx="1.22" ry="2.62"/>
      <rect class="fil2" x="82.31" y="37.15" width="2.41" height="5.18" rx="1.22" ry="2.62"/>
      <rect class="fil2" x="65.81" y="32.82" width="2.41" height="5.18" rx="1.22" ry="2.62"/>
      <rect class="fil2" x="65.52" y="43.76" width="1.57" height="3.38" rx="0.8" ry="1.71"/>
      <rect class="fil2" x="74.33" y="19.42" width="1.79" height="3.84" rx="0.91" ry="1.95"/>
      <rect class="fil2" x="68.78" y="17.57" width="1.79" height="3.84" rx="0.91" ry="1.95"/>
      <rect class="fil2" x="67.3" y="24.85" width="1.79" height="3.84" rx="0.91" ry="1.95"/>
      <rect class="fil2" x="69.12" y="38.43" width="1.79" height="3.84" rx="0.91" ry="1.95"/>
      <rect class="fil2" x="59.49" y="32" width="2.41" height="5.18" rx="1.22" ry="2.62"/>
      <rect class="fil2" x="63.06" y="51.65" width="1.57" height="3.38" rx="0.8" ry="1.71"/>
      <rect class="fil2" x="71.5" y="4.43" width="1.57" height="3.38" rx="0.8" ry="1.71"/>
      <rect class="fil2" x="55.73" y="35.67" width="1.79" height="3.84" rx="0.91" ry="1.95"/>
      <rect class="fil2" x="55.55" y="46.87" width="1.16" height="2.5" rx="0.59" ry="1.27"/>
      <rect class="fil2" x="45.69" y="28.61" width="1.79" height="3.84" rx="0.91" ry="1.95"/>
      <rect class="fil2" x="50.52" y="54.68" width="1.79" height="3.84" rx="0.91" ry="1.95"/>
      <rect class="fil2" x="63.8" y="8.38" width="2.41" height="5.18" rx="1.22" ry="2.62"/>
      <rect class="fil2" x="60.06" y="3.2" width="1.79" height="3.84" rx="0.91" ry="1.95"/>
      <rect class="fil2" x="62.53" y="20.64" width="1.79" height="3.84" rx="0.91" ry="1.95"/>
      <rect class="fil2" x="54.67" y="17.3" width="2.41" height="5.18" rx="1.22" ry="2.62"/>
      <rect class="fil2" x="49.14" y="17.87" width="1.79" height="3.84" rx="0.91" ry="1.95"/>
      <rect class="fil2" x="84.78" y="49.29" width="1.57" height="3.38" rx="0.8" ry="1.71"/>
      <rect class="fil2" x="86.8" y="24.66" width="1.57" height="3.38" rx="0.8" ry="1.71"/>
      <rect class="fil2" x="77.15" y="48.73" width="1.57" height="3.38" rx="0.8" ry="1.71"/>
      <rect class="fil2" x="51.3" y="29.92" width="1.16" height="2.5" rx="0.59" ry="1.27"/>
      <rect class="fil2" x="76.86" y="5.93" width="2.41" height="5.18" rx="1.22" ry="2.62"/>
      <rect class="fil2" x="51.53" y="5.37" width="2.41" height="5.18" rx="1.22" ry="2.62"/>
      <rect class="fil2" x="80.82" y="19.12" width="2.41" height="5.18" rx="1.22" ry="2.62"/>
     </g>
     <path class="fil3" d="M39.17 36.44c-0.28,-0.48 -5.79,13.6 -12.29,31.46 -6.5,17.86 -11.54,32.73 -11.25,33.22 0.29,0.48 5.8,-13.6 12.3,-31.46 6.5,-17.86 11.53,-32.73 11.24,-33.22z"/>
     <path class="fil4" d="M66.96 -3.65c-0.29,-0.49 -5.79,13.59 -12.3,31.45 -6.5,17.86 -11.53,32.73 -11.24,33.22 0.29,0.49 5.79,-13.6 12.29,-31.46 6.5,-17.86 11.54,-32.73 11.25,-33.21z"/>
     <path class="fil5" d="M57.39 10.84c-0.17,-0.29 -3.43,8.07 -7.29,18.67 -3.86,10.59 -6.85,19.42 -6.68,19.71 0.18,0.29 3.44,-8.07 7.3,-18.67 3.86,-10.6 6.85,-19.42 6.67,-19.71z"/>
     <path class="fil6" d="M66.96 -3.66c-0.17,-0.29 -3.43,8.07 -7.29,18.67 -3.86,10.6 -6.85,19.42 -6.68,19.71 0.17,0.29 3.44,-8.07 7.3,-18.67 3.86,-10.6 6.84,-19.42 6.67,-19.71z"/>
     <path class="fil7" d="M64.54 34.86c-0.29,-0.49 -5.8,13.59 -12.3,31.45 -6.5,17.86 -11.53,32.73 -11.24,33.22 0.28,0.49 5.79,-13.6 12.29,-31.46 6.5,-17.86 11.54,-32.73 11.25,-33.21z"/>
     <path class="fil8" d="M87.64 15.07c-0.29,-0.49 -5.8,13.59 -12.3,31.45 -6.5,17.86 -11.53,32.73 -11.25,33.22 0.29,0.49 5.8,-13.6 12.3,-31.46 6.5,-17.86 11.54,-32.73 11.25,-33.21z"/>
     <path class="fil9" d="M78.07 29.56c-0.17,-0.29 -3.44,8.07 -7.29,18.67 -3.86,10.6 -6.85,19.42 -6.68,19.71 0.17,0.29 3.44,-8.07 7.3,-18.67 3.85,-10.6 6.84,-19.42 6.67,-19.71z"/>
     <path class="fil10" d="M87.64 15.06c-0.17,-0.29 -3.44,8.07 -7.29,18.67 -3.86,10.6 -6.85,19.42 -6.68,19.71 0.17,0.29 3.44,-8.07 7.3,-18.67 3.85,-10.59 6.84,-19.42 6.67,-19.71z"/>
     <path class="fil11" d="M16.84 29.48c-0.29,-0.49 -5.79,13.6 -12.29,31.46 -6.5,17.86 -11.54,32.73 -11.25,33.21 0.29,0.49 5.79,-13.59 12.29,-31.45 6.5,-17.86 11.54,-32.73 11.25,-33.22z"/>
     <path class="fil12" d="M44.63 -10.62c-0.29,-0.48 -5.8,13.6 -12.3,31.46 -6.5,17.86 -11.54,32.73 -11.25,33.22 0.29,0.48 5.8,-13.6 12.3,-31.46 6.5,-17.86 11.53,-32.73 11.25,-33.22z"/>
     <path class="fil13" d="M33.7 -8.57c-0.17,-0.29 -3.44,8.07 -7.3,18.67 -3.85,10.6 -6.84,19.42 -6.67,19.71 0.17,0.29 3.44,-8.07 7.3,-18.67 3.85,-10.59 6.84,-19.42 6.67,-19.71z"/>
     <path class="fil14" d="M44.63 -10.62c-0.17,-0.29 -3.44,8.07 -7.3,18.66 -3.85,10.6 -6.84,19.43 -6.67,19.72 0.17,0.28 3.44,-8.07 7.3,-18.67 3.85,-10.6 6.84,-19.42 6.67,-19.71z"/>
     <path class="fil15" d="M80.75 54.1c-0.22,-0.38 -4.5,10.56 -9.55,24.44 -5.05,13.88 -8.97,25.43 -8.74,25.81 0.22,0.38 4.5,-10.56 9.55,-24.44 5.05,-13.88 8.96,-25.43 8.74,-25.81z"/>
     <path class="fil16" d="M90.15 55.02c-0.08,-0.14 -1.6,4.14 -3.41,9.56 -1.8,5.43 -3.19,9.95 -3.11,10.1 0.08,0.15 1.6,-4.13 3.4,-9.56 1.81,-5.43 3.2,-9.95 3.12,-10.1z"/>
     <path class="fil17" d="M55.63 57.11l13.92 0c1.4,0 2.6,1.83 3.13,4.42l4.89 0c1.88,0 3.42,3.3 3.42,7.34l0 0c0,4.04 -1.54,7.34 -3.42,7.34l-11.07 0c-0.31,3.36 -1.7,5.92 -3.35,5.92l-2.64 0c-1.88,0 -3.42,-3.31 -3.42,-7.34l0 0c0,-1.07 0.11,-2.08 0.3,-3l-1.76 0c-1.87,0 -3.41,-3.3 -3.41,-7.34l0 0c0,-4.04 1.54,-7.34 3.41,-7.34z"/>
     <path class="fil17" d="M73.01 42.76l2.45 0c0.31,-2.88 1.51,-5.05 2.94,-5.05l2.73 0c0.5,-3.43 1.99,-5.92 3.75,-5.92 1.76,0 3.25,2.49 3.74,5.92l1.09 0c1.66,0 3.02,2.92 3.02,6.49l0 0.01c0,3.57 -1.36,6.49 -3.02,6.49l-2.45 0c-0.31,2.87 -1.51,5.04 -2.94,5.04l-11.31 0c-1.66,0 -3.02,-2.92 -3.02,-6.49l0 0c0,-3.57 1.36,-6.49 3.02,-6.49z"/>
     <path class="fil17" d="M8.69 21.94l8.39 0c-0.02,-0.35 -0.04,-0.71 -0.04,-1.07l0 0c0,-3.57 1.36,-6.49 3.02,-6.49l1.82 0c1.66,0 3.01,2.92 3.01,6.49l0 0c0,1.49 -0.23,2.87 -0.63,3.97l4.18 0c1.66,0 3.02,2.92 3.02,6.49l0 0c0,3.57 -1.36,6.49 -3.02,6.49l-11.31 0c-1.04,0 -1.97,-1.15 -2.51,-2.9l-5.93 0c-1.66,0 -3.02,-2.92 -3.02,-6.49l0 0c0,-3.57 1.36,-6.49 3.02,-6.49z"/>
     <path class="fil17" d="M68.74 13.3l10.61 0c-0.03,-0.44 -0.05,-0.89 -0.05,-1.35l0 0c0,-4.51 1.71,-8.2 3.81,-8.2l2.3 0c2.1,0 3.81,3.69 3.81,8.2l0 0c0,1.88 -0.3,3.63 -0.8,5.02l5.28 0c2.1,0 3.82,3.69 3.82,8.2l0 0c0,4.51 -1.72,8.2 -3.82,8.2l-14.29 0c-1.32,0 -2.49,-1.46 -3.17,-3.66l-7.5 0c-2.09,0 -3.81,-3.69 -3.81,-8.2l0 0c0,-4.52 1.72,-8.21 3.81,-8.21z"/>
     <path class="fil17" d="M20.27 54.17l0.37 0c0.58,-4.5 2.5,-7.8 4.78,-7.8 2.28,0 4.2,3.3 4.78,7.8l4.37 0c2.09,0 3.81,3.7 3.81,8.21l0 0c0,4.51 -1.72,8.2 -3.81,8.2l-9.65 0c-0.52,3.23 -1.94,5.57 -3.62,5.57l-5.62 0c-2.1,0 -3.81,-3.69 -3.81,-8.2l0 0c0,-4.51 1.71,-8.2 3.81,-8.2l0.98 0c0.51,-3.23 1.94,-5.58 3.61,-5.58z"/>
     <path class="fil17" d="M42.64 19.9l0.34 0c0.53,4.13 2.3,7.16 4.39,7.16 2.09,0 3.85,-3.03 4.38,-7.16l4 0c1.93,0 3.5,-3.39 3.5,-7.53l0 0c0,-4.13 -1.57,-7.52 -3.5,-7.52l-8.85 0c-0.47,-2.96 -1.78,-5.11 -3.31,-5.11l-5.16 0c-1.92,0 -3.5,3.38 -3.5,7.52l0 0c0,4.14 1.58,7.52 3.5,7.52l0.9 0c0.47,2.97 1.78,5.12 3.31,5.12z"/>
     <path class="fil17" d="M35.65 63.65l11.11 0c1.21,0 2.26,1.59 2.72,3.84l5.23 0c1.63,0 2.96,2.87 2.96,6.38l0 0c0,3.51 -1.33,6.38 -2.96,6.38l-7.55 0c-0.27,2.92 -1.47,5.13 -2.91,5.13l-4.37 0c-1.63,0 -2.96,-2.86 -2.96,-6.37l0 0c0,-0.93 0.09,-1.81 0.26,-2.6l-1.53 0c-1.63,0 -2.97,-2.87 -2.97,-6.38l0 0c0,-3.51 1.34,-6.38 2.97,-6.38z"/>
    </g>
   </g>
   <path class="fil18 str1" d="M48.23 0.31l-3.64 0c-24.36,0 -44.28,19.92 -44.28,44.28l0 0c0,24.35 19.92,44.28 44.28,44.28l3.64 0c24.35,0 44.28,-19.93 44.28,-44.28l0 0c0,-24.36 -19.93,-44.28 -44.28,-44.28z"/>
   <path class="fil19" d="M49.35 47.37l1.1 0.6c0.7,1.27 2.76,2.31 6.2,3.15l5.17 1.29c3.52,0.88 5.85,1.64 7.03,2.26 1.16,0.64 1.99,1.59 2.49,2.88l-0.23 0.13c-0.97,-1.11 -2.01,-1.93 -3.13,-2.45 -1.13,-0.5 -3.29,-1.14 -6.48,-1.88 -4.63,-1.08 -7.74,-2.01 -9.32,-2.79 -1.59,-0.78 -2.53,-1.84 -2.83,-3.19zm4.02 10.41c0.79,3.86 2.91,6.59 6.36,8.19l0 0.27c-3.98,-1.17 -6.4,-3.93 -7.23,-8.3l0.87 -0.16zm22.88 -9.26c2.92,2.2 4.38,5.23 4.38,9.07 0,4.09 -1.59,7.56 -4.76,10.4 -3.17,2.84 -7.02,4.27 -11.57,4.27 -2.31,0 -4.4,-0.24 -6.27,-0.71l-5.15 -1.28c-1.19,-0.29 -2.47,-0.45 -3.85,-0.45 -1.23,0 -2.34,0.26 -3.37,0.75l-0.39 -0.93c1.12,-0.54 2.25,-0.8 3.41,-0.8 1.29,0 2.76,0.19 4.41,0.58l4.96 1.2c1.98,0.48 4.05,0.72 6.24,0.72 4.29,0 7.95,-1.37 10.96,-4.11 3.02,-2.73 4.52,-6.03 4.52,-9.9 0,-3.28 -1.17,-6.16 -3.52,-8.61l0 -0.2zm-7.39 -12.76c-2.37,-2.52 -4.91,-3.79 -7.63,-3.79 -1.63,0 -2.99,0.48 -4.07,1.42 -1.07,0.94 -1.61,2.15 -1.61,3.61 0,1.59 1.11,3.21 3.31,4.89l0.27 0.17 -0.17 0.25c-2.84,-1.26 -4.27,-3.1 -4.27,-5.5 0,-1.67 0.61,-3.03 1.8,-4.08 1.21,-1.04 2.78,-1.57 4.71,-1.57 1.84,0 3.46,0.4 4.84,1.18 1.39,0.78 2.4,1.87 3.05,3.29l-0.23 0.13zm9.39 -6.4l-0.3 0.49c-0.87,1.48 -1.62,2.9 -2.25,4.25 -1.49,3.16 -2.34,4.92 -2.53,5.28l-0.17 0.23 -0.76 -0.32 0.13 -0.3c0.61,-1.41 1.51,-3.25 2.7,-5.54l2.18 -4.24 0.16 -0.26 0.84 0.41zm-2 -1.38c-1.11,1.5 -2.01,3.07 -2.66,4.71 -1.31,3.21 -2.18,5.19 -2.6,5.92l-0.17 0.19c-0.09,-0.23 -0.15,-0.41 -0.2,-0.54 -0.59,-1.92 -1.08,-3.25 -1.48,-3.99 -0.38,-0.75 -0.96,-1.46 -1.73,-2.14 -1.95,-1.72 -4.18,-2.59 -6.67,-2.59 -2.29,0 -4.21,0.64 -5.74,1.91 -1.52,1.27 -2.28,2.87 -2.28,4.79 0,3.6 2.72,6.05 8.15,7.35l5.44 1.32c7.75,1.86 11.62,5.93 11.62,12.23 0,3.51 -1.33,6.45 -3.97,8.84 -2.65,2.38 -5.92,3.58 -9.82,3.58 -2.45,0 -5.18,-0.37 -8.19,-1.11l-3.77 -0.92c-1.52,-0.36 -2.77,-0.54 -3.76,-0.54 -1.31,0 -2.66,0.41 -4.05,1.23l-0.26 -0.45c2.66,-4 4.53,-7.82 5.59,-11.44l0.58 0.16c0.45,3.36 1.8,5.97 4.05,7.84 2.25,1.86 5.19,2.79 8.82,2.79 2.88,0 5.16,-0.67 6.85,-1.99 1.69,-1.33 2.53,-3.12 2.53,-5.37 0,-2.59 -1.17,-4.72 -3.53,-6.41 -1.69,-1.2 -5.17,-2.32 -10.41,-3.35 -4.05,-0.79 -6.98,-2.11 -8.8,-3.95 -1.82,-1.84 -2.73,-4.4 -2.73,-7.68 0,-3.38 1.22,-6.12 3.65,-8.24 2.43,-2.11 5.6,-3.16 9.5,-3.16 2.5,0 5.43,0.45 8.78,1.34 1.56,0.43 2.72,0.64 3.47,0.64 1.05,0 2.2,-0.38 3.44,-1.12l0.35 0.15z"/>
   <path class="fil19" d="M51.62 19.95c-1.94,2.14 -3.53,4.54 -4.78,7.23 -1.26,2.68 -2.54,6.44 -3.85,11.26l-4.29 15.67 4.65 5.43 -12.44 0 -0.55 -0.64 11.51 0 -3.92 -4.54 4.46 -16.26c1.32,-4.82 2.59,-8.53 3.81,-11.12 1.2,-2.6 2.83,-5.08 4.85,-7.44l0.55 0.41zm-1.46 -1.85c-2.24,2.48 -3.94,4.94 -5.07,7.4 -1.14,2.46 -2.49,6.53 -4.04,12.21l-4.19 15.29 0.48 1.89 2.98 2.67 -11.05 0 3.17 -2.67 -4.29 -15.55 -4.17 15.21 4.17 4.99 -12.39 0 -0.48 -0.64 11.54 0 -3.64 -4.21 4.58 -16.58 -0.79 -2.89 -4.98 18.17 0.39 1.5 2.84 2.67 -11.08 0 3.29 -2.67 -7.05 -25.41 -3.64 -3.06 11.86 0 -3.32 3.06 5.54 20 0.86 -2.93 -4.68 -16.7 2.2 -1.97 0.56 0.39 -2.01 1.79 4.24 15.27 5.19 -18.91 2.28 0 6.3 22.87 0.78 -2.74 -5.58 -20.13 0.68 0 5.22 18.91 2.29 -8.2c1.43,-5.15 2.14,-8.5 2.14,-10.05 0,-1.73 -0.82,-3.09 -2.45,-4.08 1.9,-0.59 3.92,-1.41 6.09,-2.45 2.16,-1.03 3.79,-1.96 4.85,-2.79l0.38 0.34z"/>
  </g>
 </g>
</svg>
