<?xml version="1.0" encoding="UTF-8"?>
<!DOCTYPE svg PUBLIC "-//W3C//DTD SVG 1.1//EN" "http://www.w3.org/Graphics/SVG/1.1/DTD/svg11.dtd">
<!-- Creator: CorelDRAW -->
<svg xmlns="http://www.w3.org/2000/svg" xml:space="preserve" width="124px" height="13px" version="1.1" style="shape-rendering:geometricPrecision; text-rendering:geometricPrecision; image-rendering:optimizeQuality; fill-rule:evenodd; clip-rule:evenodd"
viewBox="0 0 111.07 11.68"
 xmlns:xlink="http://www.w3.org/1999/xlink"
 xmlns:xodm="http://www.corel.com/coreldraw/odm/2003">
 <defs>
  <style type="text/css">
   <![CDATA[
    .fil0 {fill:#373435;fill-rule:nonzero}
   ]]>
  </style>
 </defs>
 <g id="Capa_x0020_1">
  <metadata id="CorelCorpID_0Corel-Layer"/>
  <path class="fil0" d="M7.72 9.02c-0.48,-0.45 -0.61,-0.63 -0.77,-1.09l-2.66 -7.81 -1.55 0c0.4,0.43 0.51,0.62 0.35,1.06l-2.27 6.73c-0.21,0.6 -0.29,0.63 -0.82,1.11l1.93 0c-0.37,-0.36 -0.46,-0.64 -0.3,-1.11l0.33 -0.96 3.82 0 0.34 0.98c0.16,0.45 0.08,0.62 -0.33,1.09l1.93 0zm-5.49 -2.86l1.64 -4.85 1.65 4.85 -3.29 0zm15.33 -0.22c0,-1.84 -0.78,-3.97 -2.98,-3.97 -3.94,0 -3.9,7.15 0,7.15 1.12,0 2.02,-0.71 2.51,-1.65l-0.83 -0.84c-0.06,1.02 -0.5,1.7 -1.68,1.7 -1.3,0 -2.01,-1.13 -2.14,-2.39l5.12 0zm-5.12 -0.79c0.11,-1.25 0.83,-2.41 2.14,-2.41 1.29,0 2.04,1.24 2.18,2.41l-4.32 0zm7.25 3.87c-0.41,-0.45 -0.53,-0.67 -0.53,-1.12l0 -3.74c0.33,-0.92 1.14,-1.39 2.15,-1.39 0.88,0 1.49,0.5 1.49,1.45l0 3.68c0,0.45 -0.12,0.67 -0.53,1.12l1.84 0c-0.41,-0.45 -0.52,-0.67 -0.52,-1.12l0 -3.68c0,-0.94 -0.59,-2.22 -2.28,-2.22 -1.01,0 -1.74,0.63 -2.15,1.44l0 -1.34 -1.31 0c0.44,0.44 0.53,0.66 0.53,1.17l0 4.63c0,0.45 -0.12,0.67 -0.53,1.12l1.84 0zm7.66 -7.04c-3.92,0 -3.92,7.17 0,7.17 1.21,0 2.16,-0.86 2.63,-1.91l-0.47 -0.28c-0.38,0.76 -1.28,1.4 -2.16,1.4 -2.89,0 -2.89,-5.6 0,-5.6 1.23,0 1.75,0.86 1.81,1.94l0.82 -0.8c-0.47,-1.07 -1.42,-1.92 -2.63,-1.92zm3.45 -1.5l0 0.79 0.78 0 0 -0.79 -0.78 0zm-0.53 8.54c0.61,0 1.23,0 1.84,0 -0.41,-0.45 -0.53,-0.67 -0.53,-1.12 0,-1.93 0,-3.87 0,-5.8l-1.31 0c0.44,0.44 0.53,0.66 0.53,1.17l0 4.63c0,0.45 -0.12,0.67 -0.53,1.12zm9.39 -8.9c-0.66,0 -1.33,0 -1.99,0 -0.69,0 -1.15,1.09 -0.61,2.51 -0.47,-0.4 -1.05,-0.66 -1.71,-0.66 -3.93,0 -3.93,7.17 0,7.17 1.23,0 2.16,-0.85 2.63,-1.92l-0.47 -0.26c-0.36,0.76 -1.28,1.4 -2.16,1.4 -2.89,0 -2.89,-5.6 0,-5.6 1.24,0 1.75,0.86 1.82,1.94l0.97 -0.92c-2.29,-3.2 0.74,-3.94 0.74,-2.12l0 6.24c0,0.45 -0.13,0.67 -0.54,1.12 0.62,0 1.23,0 1.84,0 -0.41,-0.45 -0.52,-0.67 -0.52,-1.12l0 -7.78zm3.75 1.86c-3.91,0 -3.91,7.16 0,7.16 3.91,0 3.91,-7.16 0,-7.16zm0 0.78c2.89,0 2.89,5.6 0,5.6 -2.89,0 -2.89,-5.6 0,-5.6zm5.05 8.24c-0.41,-0.45 -0.53,-0.67 -0.53,-1.12l0 -1.43c0.48,0.42 1.11,0.69 1.78,0.69 3.67,0 3.83,-7.16 0,-7.16 -0.98,0 -1.47,0.63 -1.78,1.35l0 -1.23 -1.3 0c0.44,0.44 0.53,0.66 0.53,1.17l0 6.61c0,0.45 -0.13,0.67 -0.53,1.12l1.83 0zm1.25 -8.24c2.8,0 2.64,5.6 0,5.6 -0.6,0 -1.38,-0.36 -1.78,-0.84l0 -3.36c0.32,-0.77 0.88,-1.4 1.78,-1.4zm9.04 3.18c0,-1.84 -0.78,-3.97 -2.98,-3.97 -3.94,0 -3.9,7.15 0,7.15 1.12,0 2.01,-0.71 2.51,-1.65l-0.83 -0.84c-0.06,1.02 -0.5,1.7 -1.68,1.7 -1.3,0 -2.01,-1.13 -2.15,-2.39l5.13 0zm-5.13 -0.79c0.12,-1.25 0.84,-2.41 2.15,-2.41 1.28,0 2.04,1.24 2.17,2.41l-4.32 0zm10.02 -1.82c-0.31,-0.7 -0.81,-1.35 -1.78,-1.35 -3.83,0 -3.67,7.16 0,7.16 0.65,0 1.28,-0.27 1.78,-0.69l0 0.57 1.31 0c-0.44,-0.44 -0.53,-0.66 -0.53,-1.17l0 -7.73 -1.31 0c0.44,0.43 0.53,0.65 0.53,1.16l0 2.05zm-1.78 -0.57c0.9,0 1.47,0.63 1.78,1.4l0 3.36c-0.4,0.48 -1.17,0.84 -1.78,0.84 -2.65,0 -2.79,-5.6 0,-5.6zm3.91 -2.28l0 0.79 0.79 0 0 -0.79 -0.79 0zm-0.53 8.54c0.61,0 1.23,0 1.84,0 -0.41,-0.45 -0.52,-0.67 -0.52,-1.12 0,-1.93 0,-3.87 0,-5.8l-1.32 0c0.44,0.44 0.53,0.66 0.53,1.17l0 4.63c0,0.45 -0.12,0.67 -0.53,1.12zm3.4 -4.76c0.08,-1.24 0.67,-1.52 1.94,-1.52 1.26,0 1.52,0.82 1.57,1.86l0 0.03c-1.03,-0.48 -2.46,-0.57 -3.35,-0.06 -2.07,1.18 -1.92,4.57 0.72,4.57 1.36,0 2.19,-1.04 2.63,-2.27l0 1.55 0.51 0.6 0.78 0c-0.33,-0.47 -0.51,-0.7 -0.51,-1.61l0 -1.97c0,-1.79 0.05,-3.47 -2.35,-3.47 -1.13,0 -2.32,0.42 -2.75,1.46l0.81 0.83zm0.54 0.99c0.79,-0.43 2.22,-0.23 2.98,0.3l0 0.27c-0.25,1.22 -1.31,2.54 -2.64,2.54 -1.84,0 -1.69,-2.35 -0.34,-3.11zm18.89 -3.27c-3.91,0 -3.91,7.16 0,7.16 3.91,0 3.91,-7.16 0,-7.16zm0 0.78c2.89,0 2.89,5.6 0,5.6 -2.89,0 -2.89,-5.6 0,-5.6zm5.05 8.24c-0.41,-0.45 -0.53,-0.67 -0.53,-1.12l0 -1.43c0.48,0.42 1.11,0.69 1.78,0.69 3.67,0 3.83,-7.16 0,-7.16 -0.97,0 -1.47,0.63 -1.78,1.35l0 -1.23 -1.3 0c0.44,0.44 0.53,0.66 0.53,1.17l0 6.61c0,0.45 -0.13,0.67 -0.53,1.12l1.83 0zm1.25 -8.24c2.81,0 2.65,5.6 0,5.6 -0.59,0 -1.38,-0.36 -1.78,-0.84l0 -3.36c0.32,-0.77 0.88,-1.4 1.78,-1.4zm4.94 6.26c-0.41,-0.45 -0.53,-0.67 -0.53,-1.12l0 -3.74c0.32,-0.92 1.14,-1.39 2.15,-1.39 0.87,0 1.49,0.5 1.49,1.45l0 3.68c0,0.45 -0.12,0.67 -0.53,1.12l1.84 0c-0.41,-0.45 -0.53,-0.67 -0.53,-1.12l0 -3.68c0,-0.94 -0.58,-2.22 -2.27,-2.22 -1.01,0 -1.74,0.63 -2.15,1.44l0 -3.32 -1.3 0c0.44,0.43 0.53,0.65 0.53,1.16l0 6.62c0,0.45 -0.13,0.67 -0.53,1.12l1.83 0zm7.66 0.39c-0.56,1.23 -1.49,1.92 -2.6,0.95l0 1.32c1.99,0 2.77,-0.59 3.49,-2.38l2.44 -6.12c0.2,-0.51 0.25,-0.61 0.77,-1.08 -0.64,0 -1.39,0 -2.03,0 0.47,0.4 0.63,0.56 0.43,1.07l-2.18 5.47 -0.01 0 -2.09 -5.47c-0.18,-0.47 -0.09,-0.72 0.29,-1.07 -0.64,0 -1.28,0 -1.91,0 0.44,0.32 0.58,0.54 0.79,1.07l2.39 6.24 0.22 0zm-29.15 -2.93l-0.46 0.26c0.83,1.83 2.16,2.28 3.94,2.28 1.53,0 3.62,-0.82 3.53,-2.66 -0.16,-2.97 -6.44,-1.18 -6.44,-3.83 0,-1.32 2.05,-1.76 3.04,-1.76 1.53,0 2.41,0.63 2.48,2.12l0.77 -0.77c-0.39,-1.42 -1.87,-2.12 -3.25,-2.12 -1.49,0 -3.81,0.7 -3.81,2.53 0,3.47 6.32,1.78 6.43,3.88 0.02,1.35 -1.64,1.87 -2.75,1.87 -1.39,0 -2.82,-0.43 -3.48,-1.8z"/>
 </g>
</svg>
