<?xml version="1.0" encoding="UTF-8"?>
<!DOCTYPE svg PUBLIC "-//W3C//DTD SVG 1.1//EN" "http://www.w3.org/Graphics/SVG/1.1/DTD/svg11.dtd">
<!-- Creator: CorelDRAW -->
<svg xmlns="http://www.w3.org/2000/svg" xml:space="preserve" width="302px" height="67px" version="1.1" style="shape-rendering:geometricPrecision; text-rendering:geometricPrecision; image-rendering:optimizeQuality; fill-rule:evenodd; clip-rule:evenodd"
viewBox="0 0 297.12 65.95"
 xmlns:xlink="http://www.w3.org/1999/xlink"
 xmlns:xodm="http://www.corel.com/coreldraw/odm/2003">
 <defs>
  <style type="text/css">
   <![CDATA[
    .fil0 {fill:#373435;fill-rule:nonzero}
   ]]>
  </style>
 </defs>
 <g id="Capa_x0020_1">
  <metadata id="CorelCorpID_0Corel-Layer"/>
  <path class="fil0" d="M297.12 23.15l0 1.04 -0.25 0.25c-1.43,1.36 -2.66,2.72 -3.68,4.07 -1.02,1.36 -2.54,3.64 -4.56,6.84l-9.2 14.49 0 9.96 4.53 5.45 -15.89 0 -0.31 -0.67 14.85 0 -3.85 -4.78 0 -10.14 9.37 -14.8 1.47 -2.33c2.63,-4.19 5.13,-7.31 7.52,-9.38zm-1.16 -1.52l0.16 0.2 -0.25 0.27c-3.03,3.16 -5.53,6.36 -7.5,9.62 -0.76,1.24 -1.3,2.11 -1.62,2.64l-9.45 15.12 0 10.31 3.69 3.38 -12.39 0 3.66 -3.38 0 -10.31 -6.1 -9.38 -1.31 -2.11c-1.21,-1.88 -2.19,-3.26 -2.97,-4.12 -0.77,-0.86 -1.9,-1.89 -3.41,-3.08l-0.28 -0.23 12.82 0 -3.15 3.29 8.47 12.76 0.82 -1.29 -7.56 -11.47 2.67 -2.55 0.54 0.41 -2.32 2.14 7.05 10.86 5.68 -8.98c1.64,-2.61 2.47,-4.56 2.47,-5.85 0,-1.08 -0.72,-2.32 -2.15,-3.71 4.92,-1.19 8.97,-2.65 12.13,-4.4l0.3 -0.14zm-38.17 10.35l-2.59 2.53 0 25.92 4.21 4.82 -13.16 0 -0.64 -0.67 12.36 0 -3.39 -3.84 0 -26.48 2.8 -2.8 0.41 0.52zm-29.4 -1.42l11.95 0 -3.45 3.38 0 10.99c0.39,0.07 0.84,0.13 1.36,0.15l0 -10.88 2.78 -2.74 0.5 0.46 -2.61 2.59 0 10.6 0.84 0.08c1.3,0.13 2.56,0.2 3.77,0.2 1.76,0 3.28,-0.1 4.55,-0.28l0 -11.7 -3.1 -2.85 11.75 0 -3.51 3.38 0 26.48 3.07 2.75 -11.69 0 3.48 -2.97 0 -10.77c-1.43,0.36 -2.88,0.53 -4.39,0.53 -1.42,0 -2.9,-0.08 -4.41,-0.25l-0.36 -0.03 0 10.74 4.19 4.83 -13.14 0 -0.66 -0.67 12.4 0 -3.46 -3.79 0 -11.69 0.73 0.06c2.24,0.19 3.85,0.28 4.86,0.28 1.62,0 3.03,-0.23 4.24,-0.7l0 -0.91c-1.59,0.24 -3.45,0.36 -5.56,0.36 -1.13,0 -1.96,-0.02 -2.48,-0.07l-2.56 -0.24c-0.1,-0.02 -0.3,-0.03 -0.59,-0.05l0 12.59 3.25 2.75 -11.75 0 3.41 -2.97 0 -11.1c-1.42,0 -2.56,0.56 -3.41,1.68l-0.53 -0.25c0.98,-1.24 2.3,-1.93 3.94,-2.07l0 -0.93c-1.9,0 -3.4,0.72 -4.5,2.15l-0.37 -0.25c0.99,-2.44 2.61,-3.88 4.87,-4.32l0 -11.44 -3.41 -3.11zm-5.61 2.72c1.03,0.52 1.87,1.41 2.49,2.69 0.63,1.29 0.95,2.74 0.95,4.37 0,3.68 -1.43,6.33 -4.27,7.94 -2.15,1.22 -5.82,1.84 -11.02,1.84 -0.87,0 -1.6,-0.03 -2.19,-0.08l0 10.5 3.99 4.71 -12.69 0 -0.69 -0.67 11.93 0 -3.21 -3.77 0 -11.46c1.47,0.1 3.03,0.14 4.68,0.14 4.37,0 7.61,-0.77 9.72,-2.31 2.12,-1.54 3.17,-3.91 3.17,-7.1 0,-1.33 -0.2,-2.47 -0.61,-3.45 -0.41,-0.98 -1.15,-2.09 -2.25,-3.35zm-16.01 -0.12l0 12.77 0.32 0.03 0.65 0c0.07,0 0.18,-0.01 0.33,-0.03l0 -11.31 2.75 0c2.17,0 3.7,0.19 4.59,0.57 0.89,0.38 1.64,1.17 2.27,2.38 -0.63,-0.86 -1.41,-1.46 -2.35,-1.81 -0.94,-0.34 -2.26,-0.52 -3.97,-0.52l-2.62 0 0 10.69c3.36,0 5.81,-0.49 7.38,-1.47 1.57,-0.99 2.35,-2.54 2.35,-4.65 0,-2.36 -0.7,-4.07 -2.09,-5.15 -1.39,-1.06 -3.63,-1.6 -6.71,-1.6 -0.79,0 -1.76,0.03 -2.9,0.1zm-8.3 -2.6l11.36 0c4.85,0 8.29,0.67 10.34,2.01 2.61,1.69 3.91,4.03 3.91,7.03 0,1.81 -0.5,3.39 -1.5,4.74 -0.99,1.34 -2.39,2.31 -4.18,2.91 -1.8,0.6 -4.66,0.89 -8.57,0.89l-3.06 0 0 12.25 3.04 2.78 -11.77 0 3.53 -2.96 0 -10.14c-0.2,-0.04 -0.35,-0.06 -0.44,-0.06 -1.21,0 -2.38,0.27 -3.5,0.81l-0.23 -0.45c1.13,-0.64 2.15,-0.96 3.05,-0.96l0.92 0 0.2 -0.03 0 -1.24c-0.4,-0.07 -0.66,-0.1 -0.79,-0.1 -1.82,0 -3.26,0.45 -4.35,1.34l-0.25 -0.38c1.03,-1.92 2.69,-2.89 4.98,-2.89l0.41 0 0 -12.47 -3.1 -3.08zm-11.54 0.97c2.43,1.17 4.36,3.17 5.76,5.99 1.41,2.83 2.11,6.1 2.11,9.81 0,5.45 -1.38,9.85 -4.15,13.21 -2.77,3.35 -6.41,5.02 -10.92,5.02 -2.88,0 -5.57,-0.97 -8.08,-2.9l0 -0.13c2.1,1.53 4.74,2.3 7.91,2.3 4.25,0 7.75,-1.6 10.48,-4.8 2.73,-3.2 4.09,-7.29 4.09,-12.27 0,-3.7 -0.63,-6.95 -1.87,-9.72 -1.25,-2.79 -3.03,-4.86 -5.33,-6.23l0 -0.28zm-8.1 0.91c-5.75,0 -8.62,5.01 -8.62,15.05 0,9.28 2.83,13.91 8.5,13.91 2.63,0 4.64,-1.23 6.02,-3.68 1.38,-2.46 2.07,-6.06 2.07,-10.79 0,-5.35 -0.67,-9.09 -2,-11.2 -1.39,-2.19 -3.38,-3.29 -5.97,-3.29zm0 -2.19c4.13,0 7.42,1.56 9.88,4.67 2.47,3.12 3.7,7.28 3.7,12.49 0,4.93 -1.21,8.85 -3.65,11.78 -2.43,2.93 -5.7,4.4 -9.8,4.4 -3.24,0 -6.12,-1.03 -8.65,-3.1 -3.71,-3.05 -5.56,-7.56 -5.56,-13.54 0,-5.1 1.27,-9.17 3.81,-12.18 2.54,-3.01 5.97,-4.52 10.27,-4.52zm5.44 5.98l-0.43 -0.25c-1.62,-0.91 -3.11,-1.36 -4.46,-1.36 -4.45,0 -6.68,4.38 -6.68,13.14 0,6.41 1.38,10.66 4.13,12.74l-0.23 0.25c-1.69,-1.19 -2.88,-2.77 -3.6,-4.73 -0.72,-1.95 -1.08,-4.6 -1.08,-7.93 0,-9.4 2.47,-14.09 7.4,-14.09 2.26,0 3.9,0.74 4.95,2.23zm-58.82 0.46l1.29 0.71c0.82,1.49 3.25,2.72 7.29,3.7l6.08 1.52c4.13,1.03 6.88,1.92 8.26,2.66 1.36,0.75 2.34,1.87 2.92,3.38l-0.27 0.15c-1.13,-1.3 -2.36,-2.27 -3.67,-2.87 -1.33,-0.6 -3.87,-1.35 -7.62,-2.22 -5.45,-1.27 -9.1,-2.36 -10.95,-3.28 -1.87,-0.91 -2.98,-2.16 -3.33,-3.75zm4.72 12.24c0.93,4.54 3.43,7.75 7.48,9.63l0 0.31c-4.68,-1.37 -7.52,-4.62 -8.5,-9.75l1.02 -0.19zm26.9 -10.89c3.43,2.6 5.15,6.15 5.15,10.67 0,4.81 -1.87,8.88 -5.6,12.22 -3.73,3.34 -8.25,5.02 -13.59,5.02 -2.72,0 -5.19,-0.28 -7.38,-0.84l-6.05 -1.49c-1.4,-0.35 -2.91,-0.53 -4.52,-0.53 -1.45,0 -2.76,0.29 -3.98,0.87l-0.45 -1.09c1.32,-0.63 2.65,-0.94 4.01,-0.94 1.51,0 3.24,0.23 5.19,0.68l5.83 1.42c2.32,0.55 4.76,0.84 7.33,0.84 5.05,0 9.34,-1.62 12.89,-4.83 3.54,-3.21 5.31,-7.09 5.31,-11.64 0,-3.86 -1.38,-7.24 -4.14,-10.12l0 -0.24zm-8.69 -15c-2.79,-2.96 -5.77,-4.44 -8.96,-4.44 -1.93,0 -3.52,0.55 -4.79,1.66 -1.26,1.11 -1.89,2.53 -1.89,4.24 0,1.87 1.3,3.78 3.89,5.75l0.31 0.2 -0.19 0.29c-3.34,-1.48 -5.02,-3.63 -5.02,-6.46 0,-1.96 0.71,-3.56 2.11,-4.79 1.42,-1.23 3.27,-1.85 5.54,-1.85 2.17,0 4.06,0.47 5.69,1.38 1.63,0.92 2.82,2.21 3.58,3.87l-0.27 0.15zm11.04 -7.51l-0.35 0.56c-1.03,1.75 -1.91,3.42 -2.64,5.01 -1.76,3.71 -2.76,5.77 -2.98,6.2l-0.2 0.27 -0.9 -0.37 0.16 -0.35c0.72,-1.66 1.77,-3.83 3.17,-6.51l2.56 -4.99 0.2 -0.31 0.98 0.49zm-2.35 -1.63c-1.3,1.77 -2.36,3.61 -3.13,5.53 -1.54,3.78 -2.56,6.1 -3.06,6.97l-0.19 0.22c-0.11,-0.27 -0.18,-0.48 -0.23,-0.63 -0.7,-2.26 -1.28,-3.82 -1.75,-4.7 -0.45,-0.88 -1.13,-1.71 -2.03,-2.51 -2.3,-2.03 -4.92,-3.05 -7.84,-3.05 -2.7,0 -4.96,0.75 -6.75,2.25 -1.79,1.49 -2.68,3.38 -2.68,5.63 0,4.23 3.2,7.11 9.58,8.64l6.4 1.55c9.1,2.19 13.65,6.98 13.65,14.38 0,4.13 -1.56,7.58 -4.66,10.39 -3.11,2.8 -6.97,4.21 -11.55,4.21 -2.87,0 -6.08,-0.44 -9.63,-1.31l-4.42 -1.08c-1.8,-0.42 -3.26,-0.63 -4.43,-0.63 -1.53,0 -3.12,0.48 -4.76,1.44l-0.3 -0.52c3.13,-4.71 5.32,-9.2 6.57,-13.46l0.69 0.2c0.52,3.94 2.11,7.01 4.75,9.21 2.65,2.19 6.1,3.29 10.37,3.29 3.38,0 6.06,-0.79 8.05,-2.35 1.99,-1.56 2.98,-3.66 2.98,-6.31 0,-3.04 -1.38,-5.56 -4.15,-7.54 -1.99,-1.41 -6.08,-2.72 -12.24,-3.94 -4.76,-0.92 -8.2,-2.47 -10.35,-4.64 -2.14,-2.16 -3.2,-5.17 -3.2,-9.03 0,-3.97 1.43,-7.19 4.29,-9.68 2.85,-2.48 6.58,-3.71 11.17,-3.71 2.94,0 6.38,0.52 10.31,1.57 1.83,0.5 3.2,0.75 4.08,0.75 1.24,0 2.59,-0.44 4.05,-1.32l0.41 0.18zm-35.86 17.62l-2.62 2.6 0 26.16 4.31 4.82 -13.3 0 -0.64 -0.68 12.43 0 -3.48 -3.88 0 -26.65 2.86 -2.87 0.44 0.5zm-13.32 -1.46l12.15 0 -3.44 3.49 0 26.72 3.23 2.73 -11.94 0 3.56 -2.95 0 -26.78 -3.56 -3.21zm-3.76 2.34c-2.53,0.17 -5.05,1.65 -7.56,4.45l-4.49 4.98 9.05 18.37 7.26 4.9 -16.31 0 -0.72 -0.68 14.85 0 -5.47 -3.72 -9.38 -18.87 4.77 -5.4c2.49,-2.79 5.07,-4.31 7.72,-4.57l0.28 0.54zm-31.6 -2.34l12 0 -3.54 3.39 0 15.51 1.37 -1.62 0 -13.68 2.89 -2.8 0.38 0.57 -2.64 2.56 0 12.57 7.95 -9.51c1.14,-1.37 1.71,-2.6 1.71,-3.7 0,-0.65 -0.32,-1.27 -0.97,-1.86 -0.65,-0.6 -1.43,-0.98 -2.35,-1.18l0 -0.25 13.51 0 0 0.25c-2.96,0.73 -6.14,3.14 -9.56,7.25l-3.57 4.24 9.47 18.4 4.3 2.8 -13.31 0 3.36 -2.51 -6.36 -12.74 -4.18 5.12 0 7.33 4.18 4.9 -13.15 0 -0.69 -0.68 12.3 0 -3.27 -3.93 0 -7.96 4.48 -5.49 -0.57 -1.13 -5.28 6.31 0 7.98 3.08 2.8 -11.74 0 3.51 -3.01 0 -26.87 -3.31 -3.06zm-2.93 1.46l-2.62 2.6 0 26.16 4.31 4.82 -13.3 0 -0.64 -0.68 12.43 0 -3.48 -3.88 0 -26.65 2.86 -2.87 0.44 0.5zm-13.32 -1.46l12.15 0 -3.44 3.49 0 26.72 3.23 2.73 -11.94 0 3.56 -2.95 0 -26.78 -3.56 -3.21zm13.66 -26.66c-3.02,3.33 -5.51,7.08 -7.46,11.28 -1.96,4.17 -3.96,10.03 -6,17.53l-6.68 24.43 7.25 8.46 -19.38 0 -0.87 -1.01 17.94 0 -6.11 -7.06 6.95 -25.35c2.07,-7.5 4.04,-13.29 5.93,-17.33 1.89,-4.05 4.41,-7.91 7.56,-11.59l0.87 0.64zm-2.27 -2.87c-3.5,3.85 -6.14,7.7 -7.91,11.53 -1.78,3.83 -3.88,10.17 -6.29,19.02l-6.54 23.82 0.76 2.95 4.64 4.15 -17.23 0 4.95 -4.15 -6.69 -24.23 -6.5 23.7 6.5 7.78 -19.3 0 -0.75 -1.01 17.98 0 -5.67 -6.55 7.14 -25.84 -1.24 -4.5 -7.75 28.3 0.6 2.35 4.43 4.15 -17.27 0 5.13 -4.15 -10.99 -39.59 -5.67 -4.77 18.48 0 -5.17 4.77 8.64 31.16 1.33 -4.57 -7.29 -26.02 3.43 -3.07 0.88 0.6 -3.15 2.8 6.62 23.8 8.08 -29.47 3.55 0 9.83 35.63 1.21 -4.27 -8.69 -31.36 1.05 0 8.13 29.47 3.57 -12.78c2.23,-8.03 3.34,-13.25 3.34,-15.66 0,-2.71 -1.28,-4.82 -3.82,-6.36 2.96,-0.93 6.12,-2.2 9.5,-3.81 3.36,-1.62 5.89,-3.06 7.55,-4.35l0.6 0.53z"/>
 </g>
</svg>
